<?xml version="1.0" encoding="utf-8"?>
<!-- Generator: Adobe Illustrator 19.0.1, SVG Export Plug-In . SVG Version: 6.00 Build 0)  -->
<svg version="1.1" id="cameras_1_" xmlns="http://www.w3.org/2000/svg" xmlns:xlink="http://www.w3.org/1999/xlink" x="0px" y="0px"
	 viewBox="0 0 128 128" style="enable-background:new 0 0 128 128;" xml:space="preserve">
<style type="text/css">
	.st0{fill:#303030;}
	.st1{display:none;}
	.st2{display:inline;}
	.st3{display:inline;fill-rule:evenodd;clip-rule:evenodd;fill:#303030;}
</style>
<g id="row2_1_">
	<g id="_x34__3_">
		<g id="bg_1_">
			<g>
				<path class="st0" d="M27.6,77.5c-1.7,2.8-4.8,4.7-8.3,4.7c-5.3,0-9.7-4.3-9.7-9.7s4.3-9.7,9.7-9.7c2.9,0,5.6,1.3,7.3,3.4
					c0.1-1.9,0.4-3.8,0.8-5.7c0-0.2-0.8-0.1-0.8-0.1H4.8v41.1c0,2.7,2.2,4.8,4.8,4.8H64C46.3,106.3,31.5,94,27.6,77.5z M101.3,60.4
					c0,0-0.9-0.1-0.8,0.1c0.6,2.7,0.9,5.5,0.9,8.4c0,1.1-0.1,2.1-0.1,3.2c1.3-1.2,3-2,5-2c4,0,7.2,3.2,7.2,7.2c0,4-3.2,7.2-7.2,7.2
					c-2.9,0-5.5-1.8-6.6-4.3c-4.8,15.1-19,26-35.7,26h54.3c2.7,0,4.8-2.2,4.8-4.8V60.4H101.3z"/>
			</g>
		</g>
		<g id="icon">
			<g>
				<path class="st0" d="M106.3,72.5c-2.7,0-4.8,2.2-4.8,4.8s2.2,4.8,4.8,4.8c2.7,0,4.8-2.2,4.8-4.8S108.9,72.5,106.3,72.5z
					 M12.1,53.1h14.5v-9.7H12.1V53.1z M19.3,65.2c-4,0-7.2,3.2-7.2,7.2c0,4,3.2,7.2,7.2,7.2c4,0,7.2-3.2,7.2-7.2
					C26.6,68.5,23.3,65.2,19.3,65.2z M64,36.2c-18,0-32.6,14.6-32.6,32.6S46,101.4,64,101.4c18,0,32.6-14.6,32.6-32.6
					S82,36.2,64,36.2z M64,94.2c-14,0-25.4-11.4-25.4-25.4S50,43.5,64,43.5c14,0,25.4,11.4,25.4,25.4S78,94.2,64,94.2z M64,48.3
					c-11.3,0-20.5,9.2-20.5,20.5S52.7,89.4,64,89.4c11.3,0,20.5-9.2,20.5-20.5S75.3,48.3,64,48.3z M70,67.6c-4,0-7.2-3.2-7.2-7.2
					s3.2-7.2,7.2-7.2c4,0,7.2,3.2,7.2,7.2S74,67.6,70,67.6z M118.3,26.6v-4.8h-16.9v4.8h-12l-4.9-9.7H43.5l-4.8,9.7H26.5l0-4.8H9.7
					v4.8c-5.3,0-9.7,4.3-9.7,9.7v65.2c0,5.3,4.3,9.7,9.7,9.7h108.7c5.3,0,9.7-4.3,9.7-9.7V36.2C128,30.9,123.7,26.6,118.3,26.6z
					 M48.3,24.2h31.4l2.4,2.4H45.9L48.3,24.2z M120.8,101c0,2.7-2.2,4.8-4.8,4.8H12.1c-2.7,0-4.8-2.2-4.8-4.8V38.6
					c0-2.7,2.2-4.8,4.8-4.8h31.4h41.3h31.2c2.7,0,4.8,2.2,4.8,4.8V101z"/>
			</g>
		</g>
	</g>
	<g id="_x33__3_" class="st1">
		<g id="bg_2_" class="st2">
			<g>
				<path class="st0" d="M91,45.9c6.9,5.5,11.4,13.9,11.4,23.5c0,16.5-13.4,29.9-29.9,29.9S42.7,85.8,42.7,69.3
					c0-9.5,4.5-18,11.4-23.5H4.3v51.2c0,2.4,1.9,4.3,4.3,4.3h110.9c2.4,0,4.3-1.9,4.3-4.3V45.9H91z"/>
			</g>
		</g>
		<g id="icon_1_" class="st2">
			<g>
				<path class="st0" d="M119.5,22.4H63.2l-3.5,6.4h-6.4c2.4,0,4.3-1.9,4.3-4.1c0-2.3-1.9-2.1-4.3-2.1H36c-2.4,0-4.3-0.2-4.3,2.1
					c0,2.3,1.9,4.1,4.3,4.1H25.2c2.4,0,4.3-1.9,4.3-4.1c0-2.3-1.9-2.1-4.3-2.1H7.9c-4.9,0-4.9,6.2,0,6.2h0.6c-4.7,0-8.5,3.8-8.5,8.5
					v59.7c0,4.7,3.8,8.5,8.5,8.5h110.9c4.7,0,8.5-3.8,8.5-8.5V30.9C128,26.2,124.2,22.4,119.5,22.4z M121.6,94.9
					c0,2.4-1.9,4.3-4.3,4.3H10.7c-2.4,0-4.3-1.9-4.3-4.3V39.5c0-2.4,1.9-4.3,4.3-4.3h54.2l3.2-6.4h49.3c2.4,0,4.3,1.9,4.3,4.3V94.9z
					 M72.5,56.5c-7.1,0-12.8,5.7-12.8,12.8c0,7.1,5.7,12.8,12.8,12.8s12.8-5.7,12.8-12.8C85.3,62.3,79.6,56.5,72.5,56.5z M68.3,75.7
					c-1.2,0-2.1-0.9-2.1-2.1c0-1.2,0.9-2.1,2.1-2.1c1.2,0,2.1,0.9,2.1,2.1C70.4,74.8,69.4,75.7,68.3,75.7z M75.7,67.2
					c-1.8,0-3.2-1.4-3.2-3.2c0-1.8,1.4-3.2,3.2-3.2c1.8,0,3.2,1.4,3.2,3.2C78.9,65.8,77.5,67.2,75.7,67.2z M72.5,50.1
					c-10.6,0-19.2,8.6-19.2,19.2c0,10.6,8.6,19.2,19.2,19.2c10.6,0,19.2-8.6,19.2-19.2C91.7,58.7,83.1,50.1,72.5,50.1z M72.5,85.6
					c-9,0-16.2-7.3-16.2-16.2c0-9,7.3-16.2,16.2-16.2s16.2,7.3,16.2,16.2C88.8,78.3,81.5,85.6,72.5,85.6z M113.1,30.9
					c-7.7,0-23.5,0-23.5,0v10.7h29.9c0,0,0-3.3,0-6.4C119.5,31.1,117.4,30.9,113.1,30.9z M72.5,41.6c-15.3,0-27.7,12.4-27.7,27.7
					c0,15.3,12.4,27.7,27.7,27.7s27.7-12.4,27.7-27.7C100.3,54,87.9,41.6,72.5,41.6z M72.5,92.8c-13,0-23.5-10.5-23.5-23.5
					c0-13,10.5-23.5,23.5-23.5c13,0,23.5,10.5,23.5,23.5C96,82.3,85.5,92.8,72.5,92.8z"/>
			</g>
		</g>
	</g>
	<g id="_x32__3_" class="st1">
		<g id="bg_3_" class="st2">
			<g>
				<path class="st0" d="M118.7,30.8H83.8l-2.3-16.6H53.5l-4.7,16.6H11.6c-2.6,0-4.7,2.1-4.7,4.8V64h27.9c0,0,8.4-21.7,37.2-21.4
					H51.2c-2.6,0-4.7-2.1-4.7-4.8c0-2.6,2.1-4.8,4.7-4.8h41.9c2.6,0,4.7,2.1,4.7,4.8c0,2.6-2.1,4.8-4.7,4.8H72.1
					C94.9,42.9,104.7,64,104.7,64h18.6V35.5C123.3,32.9,121.3,30.8,118.7,30.8z M41.9,45c0,2.6-2.1,4.8-4.7,4.8H18.6
					C16,49.8,14,47.6,14,45v-4.8c0-2.6,2.1-4.8,4.7-4.8h18.6c2.6,0,4.7,2.1,4.7,4.8V45z M79.1,25.2H55.9v-6.4h23.3V25.2z"/>
			</g>
		</g>
		<g id="icon_2_" class="st2">
			<g>
				<path class="st0" d="M118.7,24.4h-30l-2.5-11.6H48.9L46,24.4H30.3v-4.7H11.6v4.7H9.3c-5.1,0-9.3,4.2-9.3,9.3v62.8
					c0,5.1,4.2,9.3,9.3,9.3h36.8c6.2,5.8,14.6,9.3,23.7,9.3s17.5-3.5,23.7-9.3h25.1c5.1,0,9.3-4.2,9.3-9.3V33.7
					C128,28.6,123.8,24.4,118.7,24.4z M69.8,109.4c-16.1,0-29.1-13-29.1-29.1c0-16.1,13-29.1,29.1-29.1c16.1,0,29.1,13,29.1,29.1
					C98.9,96.4,85.9,109.4,69.8,109.4z M121,94.3c0,2.6-2.1,4.7-4.7,4.7h-17c3.4-5.4,5.4-11.8,5.4-18.6c0-19.3-15.6-34.9-34.9-34.9
					S34.9,61,34.9,80.3c0,6.8,2,13.2,5.4,18.6H11.6c-2.6,0-4.7-2.1-4.7-4.7V36.1c0-2.6,2.1-4.7,4.7-4.7H51l2.5-7v-4.7h27.9v4.7H53.5
					l-2.3,7h32.3h32.9c2.6,0,4.7,2.1,4.7,4.7V94.3z M69.8,54.7c-14.1,0-25.6,11.5-25.6,25.6c0,14.1,11.5,25.6,25.6,25.6
					c14.1,0,25.6-11.5,25.6-25.6C95.4,66.2,84,54.7,69.8,54.7z M69.8,101.2c-11.6,0-20.9-9.4-20.9-20.9c0-11.6,9.4-20.9,20.9-20.9
					s20.9,9.4,20.9,20.9C90.8,91.9,81.4,101.2,69.8,101.2z M34.9,38.4h-14c-2.6,0-4.7,2.1-4.7,4.7s2.1,4.7,4.7,4.7h14
					c2.6,0,4.7-2.1,4.7-4.7S37.5,38.4,34.9,38.4z M93.1,36.1H51.2c-1.3,0-2.3,1-2.3,2.3c0,1.3,1,2.3,2.3,2.3h41.9
					c1.3,0,2.3-1,2.3-2.3C95.4,37.1,94.4,36.1,93.1,36.1z M13.5,80.3h15.2c1.1,0,1.9-1,1.9-2.3c0-1.3-0.9-2.3-1.9-2.3H13.5
					c-1.1,0-1.9,1-1.9,2.3C11.6,79.2,12.5,80.3,13.5,80.3z M30.7,82.6H13.5c-1.1,0-1.9,1-1.9,2.3c0,1.3,0.9,2.3,1.9,2.3h17.1
					c1.1,0,1.9-1,1.9-2.3C32.6,83.7,31.7,82.6,30.7,82.6z M56.6,72.4c-3.5,6.9-0.9,15.3,6,18.8c-0.2-0.1,0-0.1,1.1-2.1
					c-5.7-2.9-7.9-10-5-15.7c3-5.7,10-7.9,15.7-5c0.3-0.7,1.1-2.1,1.1-2.1C68.6,62.9,60.2,65.6,56.6,72.4z"/>
			</g>
		</g>
	</g>
	<g id="_x31__4_" class="st1">
		<g id="bg_4_" class="st2">
			<g>
				<path class="st0" d="M116.7,26.1H11.3c-2.7,0-4.9,3.2-4.9,5.9v39.4c0,0,31.1,0,42.8,0c0-25,14.3-36.9,32-36.9
					c20.5,0,32,11.4,32,36.9c5.6,0,7.7,0,8.4,0V32C121.6,29.3,119.4,26.1,116.7,26.1z M51.7,39.4c0,2.7-2.2,4.9-4.9,4.9H19.7
					c-2.7,0-4.9-2.2-4.9-4.9v-4.9c0-2.7,2.2-4.9,4.9-4.9h27.1c2.7,0,4.9,2.2,4.9,4.9V39.4z"/>
			</g>
		</g>
		<g id="icon_3_" class="st2">
			<g>
				<path class="st0" d="M44.3,32H22.2c-2.7,0-4.9,2.2-4.9,4.9s2.2,4.9,4.9,4.9h22.2c2.7,0,4.9-2.2,4.9-4.9S47,32,44.3,32z
					 M81.2,36.9c-16.3,0-29.5,13.2-29.5,29.5S64.9,96,81.2,96s29.5-13.2,29.5-29.5S97.5,36.9,81.2,36.9z M81.2,91.1
					c-13.6,0-24.6-11-24.6-24.6c0-13.6,11-24.6,24.6-24.6c13.6,0,24.6,11,24.6,24.6C105.8,80.1,94.8,91.1,81.2,91.1z M118.2,19.7
					H44.3v-4.9H24.6v4.9H9.8c-5.4,0-9.8,4.4-9.8,9.8v73.8c0,5.4,4.4,9.8,9.8,9.8h108.3c5.4,0,9.8-4.4,9.8-9.8V29.5
					C128,24.1,123.6,19.7,118.2,19.7z M120.6,100.9c0,2.7-2.2,4.9-4.9,4.9H12.3c-2.7,0-4.9-2.2-4.9-4.9V32c0-2.7,2.2-4.9,4.9-4.9
					h103.4c2.7,0,4.9,2.2,4.9,4.9V100.9z M81.2,49.2c-9.5,0-17.2,7.7-17.2,17.2s7.7,17.2,17.2,17.2S98.5,76,98.5,66.5
					S90.7,49.2,81.2,49.2z M85.4,58.6c0,0-8.1-3.6-11.6,0.5c-3.4,4-0.3,10.1-0.3,10.1s-0.8,0.9-1.6,1.8c-3.9-3.5-4-10.4-0.6-14.3
					c3.5-3.9,11.7-3.3,15.6,0.2C85.6,58.3,85.4,58.6,85.4,58.6z M27.1,78.8c-4.1,0-7.4,3.3-7.4,7.4s3.3,7.4,7.4,7.4
					c4.1,0,7.4-3.3,7.4-7.4S31.2,78.8,27.1,78.8z"/>
			</g>
		</g>
	</g>
</g>
<g id="row1_1_">
	<g id="_x34__2_" class="st1">
		<g id="outer" class="st2">
			<g>
				<path class="st0" d="M47,11.8H10.4C4.7,11.8,0,16.4,0,22.2v83.6c0,5.8,4.7,10.4,10.4,10.4H47c5.8,0,10.4-4.7,10.4-10.4V22.2
					C57.5,16.4,52.8,11.8,47,11.8z M49.6,92.7H20.9v2.6h28.7v7.8c0,2.9-2.3,5.2-5.2,5.2H13.1c-2.9,0-5.2-2.3-5.2-5.2V24.8
					c0-2.9,2.3-5.2,5.2-5.2h31.3c2.9,0,5.2,2.3,5.2,5.2V92.7z M17,22.2c-2.2,0-3.9,1.8-3.9,3.9c0,2.2,1.8,3.9,3.9,3.9
					c2.2,0,3.9-1.8,3.9-3.9C20.9,24,19.1,22.2,17,22.2z"/>
			</g>
		</g>
		<g id="border" class="st2">
			<g>
				<path class="st0" d="M28.7,32.7c-13,0-23.5,10.5-23.5,23.5c0,13,10.5,23.5,23.5,23.5s23.5-10.5,23.5-23.5
					C52.2,43.2,41.7,32.7,28.7,32.7z M28.7,77.7c-11.9,0-21.6-9.6-21.6-21.6s9.6-21.6,21.6-21.6s21.6,9.6,21.6,21.6
					S40.6,77.7,28.7,77.7z"/>
			</g>
		</g>
		<g id="lens" class="st2">
			<g>
				<path class="st0" d="M28.7,38.5c-9.7,0-17.6,7.9-17.6,17.6c0,9.7,7.9,17.6,17.6,17.6c9.7,0,17.6-7.9,17.6-17.6
					C46.4,46.4,38.5,38.5,28.7,38.5z M28.2,54.9c-5,4.2-10.5,5.8-12.4,3.6c-1.9-2.2,0.1-8.6,5.1-12.8c5-4.2,11.1-4.6,12.9-2.3
					C35.7,45.6,33.1,50.8,28.2,54.9z M35.3,69.2c-2.2,0-3.9-1.8-3.9-3.9s1.8-3.9,3.9-3.9c2.2,0,3.9,1.8,3.9,3.9S37.4,69.2,35.3,69.2
					z"/>
			</g>
		</g>
		<path id="bg_5_" class="st3" d="M66.7,30h53.4c1.5,0,3.7,1.2,3.7,2.6v13.1H88c0,0-2.7,0.6-2.7,2.6c0,5.5,2.7,5.2,2.7,5.2h35.7
			v26.1c0,1.4-2.2,2.6-3.7,2.6H66.7c-1.5,0-2.7-1.2-2.7-2.6v-47C64,31.2,65.2,30,66.7,30z"/>
		<g id="border_1_" class="st2">
			<g>
				<path class="st0" d="M117.6,27.4h-47c-5.8,0-10.4,4.7-10.4,10.4l-3.6,2.6v26.1l3.6,3.3v15H128v-47
					C128,32.1,123.3,27.4,117.6,27.4z M122.8,48.3h-34v2.6h34v28.7H65.3V37.9c0-2.9,2.3-5.2,5.2-5.2h47c2.9,0,5.2,2.3,5.2,5.2V48.3z
					"/>
			</g>
		</g>
	</g>
	<g id="_x33__2_" class="st1">
		<g id="bg_12_" class="st2">
			<g>
				<path class="st0" d="M120.9,37.9l-20.7-2.4l-5.4-11.9H45l-7.1,11.9L7.1,37.9c-4.2,0-4.7,11.9-4.7,11.9v28.4c0,0,33.1,0,33.2,0
					c-2.7-29.3,14.6-42.7,35.6-42.7c22.1,0,35.3,14.5,33.2,42.7c10.7,0,21.3,0,21.3,0V42.7C125.6,40,123.5,37.9,120.9,37.9z
					 M29.6,61.6c-4.6,0-8.3-3.7-8.3-8.3c0-4.6,3.7-8.3,8.3-8.3c4.6,0,8.3,3.7,8.3,8.3C37.9,57.9,34.2,61.6,29.6,61.6z M82.3,33.2
					H57.6c-1.7,0-3.1-1.6-3.1-3.6c0-2,1.4-3.6,3.1-3.6h24.7c1.7,0,3.1,1.6,3.1,3.6C85.3,31.6,84,33.2,82.3,33.2z"/>
			</g>
		</g>
		<g id="icon_4_" class="st2">
			<g>
				<path class="st0" d="M29.6,47.4c-3.3,0-5.9,2.7-5.9,6s2.7,6,5.9,6c3.3,0,5.9-2.7,5.9-6S32.9,47.4,29.6,47.4z M83,28.4H56.9v2.4
					H83V28.4z M74.3,60c-3.1-1.4-6.5-0.7-7.6,1.5c-1.1,2.2,0.6,5.2,3.7,6.6c3.1,1.4,6.5,0.7,7.6-1.5C79,64.3,77.4,61.3,74.3,60z
					 M118.5,35.6c0,0-2.7,0-10.6,0c-0.6,0-17.2-19-17.8-19c-18.1,0-14.5,0-37.9,0c-1,0-16.1,19-17.1,19c-1.3,0-0.2,0-1.5,0
					c-1.4,0-3.8-4.7-5.1-4.7c-6.7,0-8.3,0-11.9,0c-0.5,0-3.9,4.7-4.4,4.7c-1.8,0-2.7,0-2.7,0C4.2,35.6,0,39.8,0,45v56.9
					c0,5.2,4.2,9.5,9.5,9.5h109c5.2,0,9.5-4.2,9.5-9.5V45C128,39.8,123.8,35.6,118.5,35.6z M120.9,99.6c0,2.6-2.1,4.7-4.7,4.7H11.9
					c-2.6,0-4.7-2.1-4.7-4.7c0,0,11.9-2.6,11.9-9.5c0-7.8,0-24.7,0-33.2c0-6.4-11.9-9.5-11.9-9.5c0-2.6,2.1-4.7,4.7-4.7
					c0,0,10.4,0,26.1,0c1.7,0,14.8-19,16.6-19c19.8,0,13.8,0,30.8,0c2.4,0,17.9,19,19.9,19c8.1,0,10.9,0,10.9,0
					c2.6,0,4.7,2.1,4.7,4.7V99.6z M111.4,90.1c-2.6,0-4.7,2.1-4.7,4.7c0,2.6,2.1,4.7,4.7,4.7c2.6,0,4.7-2.1,4.7-4.7
					C116.2,92.2,114.1,90.1,111.4,90.1z M69.9,47.4c-12.4,0-22.5,10.1-22.5,22.5c0,12.4,10.1,22.5,22.5,22.5
					c12.4,0,22.5-10.1,22.5-22.5C92.4,57.5,82.3,47.4,69.9,47.4z M69.9,85.4c-8.5,0-15.4-6.9-15.4-15.4c0-8.5,6.9-15.4,15.4-15.4
					c8.5,0,15.4,6.9,15.4,15.4C85.3,78.5,78.4,85.4,69.9,85.4z M69.9,37.9c-17.6,0-32,14.4-32,32c0,17.6,14.3,32,32,32
					c17.6,0,32-14.4,32-32C101.9,52.3,87.6,37.9,69.9,37.9z M69.9,97.3c-15.1,0-27.3-12.3-27.3-27.3c0-15.1,12.3-27.3,27.3-27.3
					c15.1,0,27.3,12.3,27.3,27.3C97.3,85,85,97.3,69.9,97.3z M67.2,76.2c-1.2-0.7-5.1-1.5-5.5-0.3c-0.4,1.1,2.7,3.7,4,4.4l5.5,0.3
					C71.5,79.5,68.4,76.9,67.2,76.2z"/>
			</g>
		</g>
	</g>
	<g id="_x32__2_" class="st1">
		<g id="green" class="st2">
			<g>
				<path class="st0" d="M117.6,28.7h-14.9l-6-13.1h-34l-7.8,13.1H10.4c-2.9,0-5.2,2.3-5.2,5.2v41.8h15.7V54.9h7.8v20.9
					c0,0,7.5,0,7.8,0c-3-32.3,16.1-47,39.2-47c24.3,0,41.5,16,39.2,47c4.7,0,6.9,0,7.8,0V34C122.8,31.1,120.4,28.7,117.6,28.7z
					 M39.2,47H15.7V36.6h23.5V47z"/>
			</g>
		</g>
		<g id="icon_5_" class="st2">
			<g>
				<path class="st0" d="M117.6,23.5h-13l-5.3-10.4H57.5l-5.2,10.4H28.7l0-5.2H10.4v5.2C4.7,23.5,0,28.2,0,34v70.5
					c0,5.8,4.7,10.4,10.4,10.4h107.1c5.8,0,10.4-4.7,10.4-10.4V34C128,28.2,123.3,23.5,117.6,23.5z M120.2,101.9
					c0,2.9-2.3,5.2-5.2,5.2H26.1V57.5h-2.6v49.6H13.1c-2.9,0-5.2-2.3-5.2-5.2V36.6c0-2.9,2.3-5.2,5.2-5.2h44.4l5.2-10.4H94l5.5,10.4
					h15.4c2.9,0,5.2,2.3,5.2,5.2V101.9z M18.3,44.4h18.3v-5.2H18.3V44.4z M75.8,44.4c-13,0-23.5,10.5-23.5,23.5s10.5,23.5,23.5,23.5
					c13,0,23.5-10.5,23.5-23.5S88.7,44.4,75.8,44.4z M73.1,54.9c0,0-10.5,4-10.4,13.1C62.8,79.8,73.1,81,73.1,81s0,1.6,0,2.6
					c-7.9,0-13.1-7.7-13.1-15.7s5.6-15.6,13.1-15.7C76.2,52.2,73.1,54.9,73.1,54.9z M75.8,31.3c-20.2,0-36.6,16.4-36.6,36.6
					s16.4,36.6,36.6,36.6c20.2,0,36.6-16.4,36.6-36.6S96,31.3,75.8,31.3z M75.8,96.6c-15.9,0-28.7-12.8-28.7-28.7
					s12.8-28.7,28.7-28.7c15.9,0,28.7,12.8,28.7,28.7S91.6,96.6,75.8,96.6z"/>
			</g>
		</g>
	</g>
	<g id="_x31__3_" class="st1">
		<g id="bg_11_" class="st2">
			<g>
				<path class="st0" d="M116.5,17.6H11.5c-2.8,0-5,2.2-5,5v40.2c0,0,16.6,0,28.6,0c0-25.4,9.6-38,30.1-37.6
					c19.4,0.3,27.6,11.7,27.6,37.6c11.4,0,28.6,0,28.6,0V22.6C121.5,19.8,119.2,17.6,116.5,17.6z M118,32.6c0,2.8-2.2,5-5,5H97.9
					c-2.8,0-5-2.2-5-5v-5c0-2.8,2.2-5,5-5h15.1c2.8,0,5,2.2,5,5V32.6z"/>
			</g>
		</g>
		<g id="icon_6_" class="st2">
			<g>
				<path class="st0" d="M20.1,90.4h87.8v-7.5H20.1V90.4z M118,12.5H32.6v-5H15.1v5h-5c-5.5,0-10,4.5-10,10v70.3
					c0,5.5,4.5,7.5,10,7.5h7.5l5-7.5h-10c-2.8,0-5-2.2-5-5V25.1c0-2.8,2.2-5,5-5h102.9c2.8,0,5,2.2,5,5v62.7c0,2.8-2.2,5-5,5h-7.5
					l2.5,7.5h7.5c5.5,0,10-2,10-7.5V22.6C128,17,123.5,12.5,118,12.5z M81.3,54c0-9.5-7.7-17.3-17.3-17.3c-9.5,0-17.3,7.7-17.3,17.3
					c0,9.5,7.7,17.3,17.3,17.3C73.5,71.2,81.3,63.5,81.3,54z M68.3,63.4c0.3-2,4.4-6.7,6.4-6.4C81.9,58,66.9,73,68.3,63.4z
					 M48.6,54.9c-1.7-1.4,4.3-17.2,16.4-16.4C73.2,48.3,57,61.9,48.6,54.9z M90.4,54c0-14.6-11.8-26.4-26.4-26.4S37.6,39.4,37.6,54
					c0,14.6,11.8,26.4,26.4,26.4S90.4,68.5,90.4,54z M41.3,54c0-12.5,10.2-22.7,22.7-22.7S86.7,41.4,86.7,54
					c0,12.5-10.2,22.7-22.7,22.7S41.3,66.5,41.3,54z M110.4,35.1c2.8,0,5-2.2,5-5s-2.2-5-5-5h-10c-2.8,0-5,2.2-5,5s2.2,5,5,5H110.4z
					"/>
			</g>
		</g>
		<g id="_x31__1_" class="st2">
			<g>
				<path class="st0" d="M107.9,115.5L95.4,90.4H32.6l-10,25.1H107.9z M102.9,90.4h-2.5l12.5,27.6H17.6l10-27.6h-2.5l-12.5,30.1H118
					L102.9,90.4z"/>
			</g>
		</g>
	</g>
</g>
</svg>
